<svg width="16" height="16" viewBox="0 0 16 16" fill="none" xmlns="http://www.w3.org/2000/svg">
<path opacity="0.6" fill-rule="evenodd" clip-rule="evenodd" d="M0.0292206 8C0.0292206 12.4021 3.59792 15.9708 8 15.9708C12.4021 15.9708 15.9708 12.4021 15.9708 8C15.9708 3.59792 12.4021 0.0292206 8 0.0292206C3.59792 0.0292206 0.0292206 3.59792 0.0292206 8ZM2.02922 7.97922C2.02922 4.69006 4.71242 2.02922 8.02922 2.02922C11.346 2.02922 14.0292 4.69006 14.0292 7.97922C14.0292 11.2684 11.346 13.9292 8.02922 13.9292C4.71242 13.9292 2.02922 11.2684 2.02922 7.97922Z"/>
<path opacity="0.6" fill-rule="evenodd" clip-rule="evenodd" d="M8.04999 12.728C7.41733 12.728 6.89999 12.368 6.89999 11.9278V7.32822C6.89999 6.88798 7.41733 6.528 8.04999 6.528C8.68266 6.528 9.19999 6.88798 9.19999 7.32822V11.9278C9.19999 12.368 8.68266 12.728 8.04999 12.728Z"/>
<path opacity="0.6" fill-rule="evenodd" clip-rule="evenodd" d="M9.3 4.57844C9.3 6.24452 6.8 6.24452 6.8 4.57844C6.8 2.91119 9.3 2.91119 9.3 4.57844"/>
</svg>

