<svg width="18" height="18" viewBox="0 0 18 18" fill="none" xmlns="http://www.w3.org/2000/svg">
<path fill-rule="evenodd" clip-rule="evenodd" d="M16.5319 1.71769C15.5931 0.746899 14.3196 0.201172 12.9916 0.201172C11.6634 0.201172 10.3901 0.746899 9.45133 1.71769L9.05573 2.12678C9.38566 2.84429 9.94429 3.42197 10.6381 3.76315L11.0337 3.35406C12.1356 2.3569 13.7961 2.41442 14.8314 3.48509C15.8667 4.55576 15.9223 6.27284 14.9581 7.41216L8.12163 14.4833C7.2748 15.3374 6.05479 15.6642 4.91347 15.3422C3.77225 15.021 2.88066 14.099 2.56991 12.9188C2.25853 11.7386 2.57455 10.4769 3.40052 9.60125L6.30426 6.59852C6.74081 6.14629 7.44936 6.14629 7.88668 6.59852C8.32323 7.04995 8.32323 7.78265 7.88668 8.23488L5.11745 11.0985C5.44738 11.8152 6.00601 12.3929 6.69987 12.7349L9.4691 9.87125C10.3152 8.99555 10.6459 7.72025 10.336 6.52509C10.0262 5.32993 9.12294 4.39577 7.96695 4.07525C6.81103 3.75485 5.57789 4.09682 4.73189 4.97173L1.82736 7.97671C0.72709 9.04177 0.0911952 10.5239 0.0664699 12.0828C0.0409712 13.6416 0.62898 15.1438 1.69525 16.2463C2.76152 17.3489 4.21407 17.9569 5.72152 17.9306C7.22899 17.905 8.66224 17.2474 9.6922 16.1097L16.5318 9.04016C17.4714 8.06936 17.9991 6.75252 17.9991 5.3792C17.9991 4.00572 17.4714 2.68902 16.5318 1.71743L16.5319 1.71769Z"/>
</svg>
