<svg width="14" height="13" viewBox="0 0 14 13" fill="none" xmlns="http://www.w3.org/2000/svg">
<path fill-rule="evenodd" clip-rule="evenodd" d="M1.00027 3L12.9997 2.99859V3C13.5519 3 14 2.32771 14 1.4993C14 0.670887 13.5519 0 12.9997 0H1.00027C0.448108 0 0 0.670887 0 1.4993C0 2.32771 0.448108 3 1.00027 3ZM12.9997 7.99859L1.00027 8C0.448108 8 0 7.32802 0 6.5C0 5.67198 0.448108 5 1.00027 5H12.9997C13.5519 5 14 5.67198 14 6.5C14 7.32802 13.5519 8 12.9997 8V7.99859ZM12.9997 13H1.00027C0.448108 13 0 12.3291 0 11.5007C0 10.6723 0.448108 10 1.00027 10H12.9997C13.5519 10 14 10.6723 14 11.5007C14 12.3291 13.5519 13 12.9997 13Z"/>
</svg>
