<svg width="19" height="19" viewBox="0 0 19 19" fill="none" xmlns="http://www.w3.org/2000/svg">
<path fill-rule="evenodd" clip-rule="evenodd" d="M9.5 18C14.1944 18 18 14.1944 18 9.5C18 4.80558 14.1944 1 9.5 1C4.80558 1 1 4.80558 1 9.5C1 14.1944 4.80558 18 9.5 18Z" fill="#EAF7FF" stroke="#50AFF0" stroke-width="1.24"/>
<path d="M14.6689 7.99612L10.1734 12.655H10.1744C9.96265 12.8755 9.67607 13 9.37583 13C9.07662 13 8.789 12.8755 8.5783 12.655L6.33108 10.3261C5.88964 9.86863 5.88964 9.12835 6.33108 8.67197C6.77146 8.21559 7.48576 8.21559 7.92617 8.67197L9.37586 10.1864L13.0728 6.3431H13.0738C13.5142 5.88563 14.2285 5.88563 14.6689 6.3431C15.1104 6.79949 15.1104 7.53974 14.6689 7.99615L14.6689 7.99612Z" fill="#50AFF0"/>
</svg>
