<svg width="16" height="15" viewBox="0 0 16 15" fill="none" xmlns="http://www.w3.org/2000/svg">
<path d="M3.49976 1.18149C2.97274 0.654477 2.13795 0.634116 1.63603 1.13604C1.13411 1.63795 1.15447 2.47275 1.68149 2.99977L12.5002 13.8185C13.0272 14.3455 13.862 14.3659 14.364 13.864C14.8659 13.362 14.8455 12.5272 14.3185 12.0002L3.49976 1.18149Z" fill="#717375"/>
<path d="M14.3185 2.99977C14.8455 2.47275 14.8659 1.63796 14.3639 1.13604C13.862 0.634117 13.0272 0.654478 12.5002 1.18149L1.68147 12.0002C1.15445 12.5272 1.13409 13.362 1.63601 13.864C2.13793 14.3659 2.97273 14.3455 3.49974 13.8185L14.3185 2.99977Z" fill="#717375"/>
</svg>
