<svg width="6" height="10" viewBox="0 0 6 10" fill="none" xmlns="http://www.w3.org/2000/svg">
<path fill-rule="evenodd" clip-rule="evenodd" d="M1 2C1.55228 2 2 1.55228 2 1C2 0.447715 1.55228 0 1 0C0.447715 0 0 0.447715 0 1C0 1.55228 0.447715 2 1 2Z"/>
<path fill-rule="evenodd" clip-rule="evenodd" d="M1 6C1.55228 6 2 5.55228 2 5C2 4.44772 1.55228 4 1 4C0.447715 4 0 4.44772 0 5C0 5.55228 0.447715 6 1 6Z"/>
<path fill-rule="evenodd" clip-rule="evenodd" d="M1 10C1.55228 10 2 9.55228 2 9C2 8.44772 1.55228 8 1 8C0.447715 8 0 8.44772 0 9C0 9.55228 0.447715 10 1 10Z"/>
<path fill-rule="evenodd" clip-rule="evenodd" d="M5 2C5.55228 2 6 1.55228 6 1C6 0.447715 5.55228 0 5 0C4.44772 0 4 0.447715 4 1C4 1.55228 4.44772 2 5 2Z"/>
<path fill-rule="evenodd" clip-rule="evenodd" d="M5 6C5.55228 6 6 5.55228 6 5C6 4.44772 5.55228 4 5 4C4.44772 4 4 4.44772 4 5C4 5.55228 4.44772 6 5 6Z"/>
<path fill-rule="evenodd" clip-rule="evenodd" d="M5 10C5.55228 10 6 9.55228 6 9C6 8.44772 5.55228 8 5 8C4.44772 8 4 8.44772 4 9C4 9.55228 4.44772 10 5 10Z"/>
</svg>
