<svg width="18" height="15" viewBox="0 0 18 15" fill="none" xmlns="http://www.w3.org/2000/svg">
<path fill-rule="evenodd" clip-rule="evenodd" d="M1.35 0C0.604688 0 0 0.575893 0 1.28571C0 1.99554 0.604688 2.57143 1.35 2.57143H16.65C17.3953 2.57143 18 1.99554 18 1.28571C18 0.575893 17.3953 0 16.65 0H1.35ZM1.35 6.21429C0.604688 6.21429 0 6.79018 0 7.5C0 8.20982 0.604688 8.78571 1.35 8.78571H16.65C17.3953 8.78571 18 8.20982 18 7.5C18 6.79018 17.3953 6.21429 16.65 6.21429H1.35ZM0 13.7143C0 13.0045 0.604688 12.4286 1.35 12.4286H16.65C17.3953 12.4286 18 13.0045 18 13.7143C18 14.4241 17.3953 15 16.65 15H1.35C0.604688 15 0 14.4241 0 13.7143Z" fill="#717375"/>
</svg>
