<svg width="16" height="16" viewBox="0 0 16 16" fill="none" xmlns="http://www.w3.org/2000/svg">
<path fill-rule="evenodd" clip-rule="evenodd" d="M13.0955 0H2.61874C1.17232 0 0 1.17232 0 2.61874V13.0955C0 14.542 1.17232 15.7143 2.61874 15.7143H13.0955C14.542 15.7143 15.7143 14.542 15.7143 13.0955V2.61874C15.7143 1.17232 14.542 0 13.0955 0ZM1.42857 2.61874C1.42857 1.9616 1.9616 1.42857 2.61874 1.42857H13.0955C13.7527 1.42857 14.2857 1.9616 14.2857 2.61874V13.0955C14.2857 13.7527 13.7527 14.2857 13.0955 14.2857H2.61874C1.9616 14.2857 1.42857 13.7527 1.42857 13.0955V2.61874Z" fill="#50AFF0"/>
<path fill-rule="evenodd" clip-rule="evenodd" d="M7.81607 4H7.71429C7.31963 4 7 4.31963 7 4.71429V11.4482C7 11.8429 7.31963 12.1625 7.71429 12.1625H7.81607C8.21072 12.1625 8.53036 11.8429 8.53036 11.4482V4.71429C8.53036 4.31963 8.21072 4 7.81607 4ZM7.81607 11.2107H7.71429C7.73125 11.2107 7.74911 11.2125 7.76518 11.2161C7.78125 11.2125 7.79911 11.2107 7.81607 11.2107Z" fill="#50AFF0"/>
<path fill-rule="evenodd" clip-rule="evenodd" d="M12.1625 7.81607V7.71429C12.1625 7.31963 11.8429 7 11.4482 7H4.71429C4.31963 7 4 7.31963 4 7.71429V7.81607C4 8.21072 4.31963 8.53036 4.71429 8.53036H11.4482C11.8429 8.53036 12.1625 8.21072 12.1625 7.81607ZM4.95177 7.81607V7.71429V7.71428C4.95177 7.73125 4.94999 7.74911 4.94641 7.76518C4.94999 7.78125 4.95177 7.79911 4.95177 7.81607Z" fill="#50AFF0"/>
</svg>
