<svg width="17" height="18" viewBox="0 0 17 18" fill="none" xmlns="http://www.w3.org/2000/svg">
<path opacity="0.504627" fill-rule="evenodd" clip-rule="evenodd" d="M12.4368 11.2928C12.24 11.0959 12.1932 10.7329 12.3416 10.491H12.3416C12.3416 10.491 12.4077 10.4006 12.5465 10.1167C12.9756 9.24066 13.216 8.25656 13.216 7.216C13.216 3.56678 10.2572 0.608 6.608 0.608C2.95877 0.608 0 3.56678 0 7.216C0 10.8652 2.95877 13.824 6.608 13.824C7.64534 13.824 8.62621 13.5852 9.50061 13.1593C9.78616 13.019 9.87812 12.9512 9.87812 12.9512C10.1233 12.8044 10.4847 12.8447 10.6848 13.0448L14.405 16.765C14.889 17.249 15.673 17.249 16.157 16.765C16.641 16.281 16.641 15.497 16.157 15.013L12.4368 11.2928ZM10.7379 7.21598C10.7379 9.49715 8.88908 11.346 6.60792 11.346C4.32675 11.346 2.47791 9.49715 2.47791 7.21598C2.47791 4.93482 4.32675 3.08598 6.60792 3.08598C8.88908 3.08598 10.7379 4.93482 10.7379 7.21598Z" fill="#717375"/>
</svg>
