<svg width="11" height="18" viewBox="0 0 11 18" fill="none" xmlns="http://www.w3.org/2000/svg">
<path fill-rule="evenodd" clip-rule="evenodd" d="M0.583999 11.1967C0.466238 11.3158 0.399994 11.4778 0.399994 11.6459C0.399994 11.8146 0.466235 11.9765 0.583999 12.0956L4.8504 16.4139C4.96816 16.533 5.12763 16.6 5.29446 16.6C5.46128 16.6 5.62075 16.533 5.73851 16.4139L10.0049 12.0956C10.1276 11.9778 10.1981 11.814 10.2 11.6428C10.2018 11.4715 10.1356 11.3065 10.0153 11.1856C9.89574 11.0646 9.73259 10.9976 9.56331 11.0001C9.39403 11.0025 9.23271 11.0739 9.11618 11.198L5.29444 15.0671L1.4727 11.198C1.35494 11.0789 1.19548 11.0112 1.02865 11.0112C0.861821 11.0106 0.701745 11.0776 0.583984 11.1967L0.583999 11.1967Z" fill="#3C3C3C" fill-opacity="0.5"/>
<path fill-rule="evenodd" clip-rule="evenodd" d="M10.016 6.60326C10.1337 6.48415 10.2 6.32224 10.2 6.15413C10.2 5.98539 10.1338 5.82348 10.016 5.70437L5.74958 1.38611C5.63182 1.267 5.47236 1.2 5.30553 1.2C5.1387 1.2 4.97924 1.267 4.86148 1.38611L0.595075 5.70437C0.472407 5.82224 0.401868 5.98601 0.400031 6.15724C0.398191 6.32845 0.464432 6.49347 0.584648 6.61444C0.704249 6.73541 0.867401 6.80241 1.03668 6.79993C1.20596 6.79746 1.36727 6.72611 1.48381 6.60204L5.30555 2.7329L9.12728 6.60204C9.24505 6.72115 9.40451 6.78877 9.57134 6.78877C9.73817 6.78939 9.89824 6.72239 10.016 6.60328L10.016 6.60326Z" fill="#3C3C3C" fill-opacity="0.5"/>
</svg>
