<svg width="17" height="17" viewBox="0 0 17 17" fill="none" xmlns="http://www.w3.org/2000/svg">
<path opacity="0.6" fill-rule="evenodd" clip-rule="evenodd" d="M6.31177 2.145L6.68666 0.0800018H9.83331L10.2082 2.145C10.5739 2.26025 10.925 2.40698 11.2591 2.58137L12.9861 1.38907L15.2108 3.61377L14.0185 5.34689C14.1914 5.67953 14.3343 6.0283 14.4487 6.39168L16.5198 6.76657V9.91324L14.4487 10.2943C14.3342 10.6584 14.186 11.0057 14.0124 11.3391L15.2108 13.066L12.9861 15.2907L11.2591 14.0984C10.9249 14.2728 10.5739 14.4196 10.2082 14.5348L9.83331 16.5998H6.68664L6.31175 14.5348C5.94531 14.4196 5.58961 14.2736 5.25467 14.0984L3.5277 15.2907L1.30301 13.066L2.50759 11.3391C2.33244 11.0041 2.18033 10.6546 2.06509 10.2881L9.15527e-05 9.91324V6.76657L2.06509 6.39168C2.18034 6.026 2.32707 5.67491 2.50146 5.34074L1.30301 3.61377L3.5277 1.38907L5.26083 2.58137C5.59426 2.40773 5.94763 2.25947 6.31177 2.145ZM11.9967 8.34C11.9967 6.27654 10.3234 4.60334 8.25999 4.60334C6.19653 4.60334 4.52333 6.27654 4.52333 8.34C4.52333 10.4035 6.19653 12.0767 8.25999 12.0767C10.3235 12.0767 11.9967 10.4035 11.9967 8.34Z"/>
</svg>
