<svg width="21" height="17" viewBox="0 0 21 17" fill="none" xmlns="http://www.w3.org/2000/svg">
<path d="M10.5334 15.9266C10.4948 15.9512 10.4559 15.9631 10.4109 15.9642H10.4037C10.3542 15.9642 10.3113 15.9508 10.2763 15.9288L10.2764 15.9288L10.2684 15.9239C10.2685 15.9239 10.2681 15.9237 10.2671 15.9231C10.211 15.8874 8.3296 14.6921 6.36071 13.0835L6.3607 13.0835C3.54473 10.7831 1.97773 8.83882 1.45862 7.31581L1.4499 7.29022L1.43981 7.26515C1.22632 6.73456 1.11797 6.18408 1.11554 5.62582V5.59643C1.11554 3.1131 3.21585 1.03497 5.86614 1.03497C7.33748 1.03497 8.73372 1.71095 9.62811 2.81938L10.4058 3.78323L11.1842 2.8199C12.0797 1.7116 13.4765 1.03497 14.9475 1.03497C17.5976 1.03497 19.6972 3.1129 19.6972 5.59643C19.6972 5.60301 19.6971 5.60646 19.697 5.60832L19.6905 5.65814L19.6893 5.71241C19.6775 6.24446 19.5699 6.76418 19.3677 7.26238L19.3569 7.28891L19.3477 7.31601C18.8287 8.83972 17.2619 10.7837 14.4466 13.0835L14.4466 13.0835C12.5379 14.6428 10.7247 15.8052 10.5344 15.926L10.5334 15.9266Z" stroke="#EF3E3E" stroke-width="2"/>
</svg>
