<svg width="21" height="17" viewBox="0 0 21 17" fill="none" xmlns="http://www.w3.org/2000/svg">
<path fill-rule="evenodd" clip-rule="evenodd" d="M10.4037 16.9642C10.1679 16.9642 9.94026 16.8987 9.74423 16.7755C9.72435 16.7632 7.77406 15.5295 5.72803 13.858C2.87991 11.5312 1.12561 9.43842 0.512094 7.63843C0.251933 6.99185 0.118245 6.31554 0.11554 5.62789V5.59643C0.11554 2.5295 2.69541 0.0349731 5.86614 0.0349731C7.63849 0.0349731 9.32131 0.846701 10.4064 2.19142C11.4922 0.847573 13.1752 0.0349731 14.9475 0.0349731C18.1182 0.0349731 20.6972 2.5295 20.6972 5.59643C20.6972 5.63051 20.6963 5.67944 20.689 5.73449C20.6746 6.38894 20.5418 7.02855 20.2943 7.63842C19.6809 9.43926 17.9267 11.5319 15.0793 13.858C13.1263 15.4535 11.2754 16.6401 11.0702 16.7703C10.867 16.8996 10.6394 16.9643 10.4036 16.9643L10.4037 16.9642Z" fill="#E95751"/>
<path fill-rule="evenodd" clip-rule="evenodd" d="M5.43447 8.5C7.03095 8.5 8.32515 7.24817 8.32515 5.70395C8.32515 4.15973 7.03095 2.9079 5.43447 2.9079C3.83799 2.9079 2.54379 4.15973 2.54379 5.70395C2.54379 7.24817 3.83799 8.5 5.43447 8.5Z" fill="#EF7F7D"/>
</svg>
