<svg width="21" height="17" viewBox="0 0 21 17" fill="none" xmlns="http://www.w3.org/2000/svg">
<path fill-rule="evenodd" clip-rule="evenodd" d="M10.4973 16.9999C10.2567 16.9999 10.0244 16.9341 9.82441 16.8104C9.80414 16.7981 7.81419 15.5592 5.72658 13.8807C2.82056 11.5442 1.0306 9.44269 0.404616 7.63519C0.139166 6.98591 0.00276067 6.30678 0 5.61626V5.58468C0 2.50494 2.63231 0 5.86749 0C7.67588 0 9.3929 0.815116 10.5 2.16545C11.6079 0.815992 13.3251 0 15.1334 0C18.3686 0 21 2.50494 21 5.58468C21 5.61889 20.9991 5.66803 20.9917 5.72331C20.977 6.38049 20.8415 7.02277 20.5889 7.63519C19.9631 9.44354 18.1732 11.5449 15.2679 13.8807C13.2752 15.4828 11.3867 16.6745 11.1774 16.8052C10.97 16.9351 10.7377 17 10.4972 17L10.4973 16.9999Z" fill="white"/>
<path fill-rule="evenodd" clip-rule="evenodd" d="M5.42704 8.50033C7.05597 8.50033 8.37648 7.24327 8.37648 5.69261C8.37648 4.14195 7.05597 2.88489 5.42704 2.88489C3.79811 2.88489 2.4776 4.14195 2.4776 5.69261C2.4776 7.24327 3.79811 8.50033 5.42704 8.50033Z" fill="#F6F6F6"/>
</svg>
