<svg width="26" height="22" viewBox="0 0 26 22" fill="none" xmlns="http://www.w3.org/2000/svg">
<path fill-rule="evenodd" clip-rule="evenodd" d="M12.8389 20.9579C12.5707 20.9579 12.3116 20.8808 12.0885 20.7359C12.0659 20.7215 9.84655 19.27 7.51826 17.3035C4.27721 14.5661 2.28089 12.104 1.58274 9.98638C1.28668 9.2257 1.13455 8.43004 1.13147 7.62104V7.58403C1.13147 3.97587 4.06726 1.04114 7.67542 1.04114C9.69229 1.04114 11.6073 1.99611 12.842 3.57814C14.0776 1.99714 15.9928 1.04114 18.0096 1.04114C21.6178 1.04114 24.5525 3.97587 24.5525 7.58403C24.5525 7.62412 24.5515 7.68169 24.5433 7.74645C24.5268 8.5164 24.3757 9.26887 24.0941 9.98637C23.3961 12.105 21.3999 14.5669 18.1596 17.3035C15.9371 19.1805 13.8309 20.5766 13.5975 20.7298C13.3662 20.8819 13.1071 20.958 12.8389 20.958L12.8389 20.9579Z" stroke="#50AFF0" stroke-width="2" stroke-linecap="round" stroke-linejoin="round"/>
<path fill-rule="evenodd" clip-rule="evenodd" d="M7.18421 11C9.00094 11 10.4737 9.52725 10.4737 7.71052C10.4737 5.8938 9.00094 4.42105 7.18421 4.42105C5.36748 4.42105 3.89474 5.8938 3.89474 7.71052C3.89474 9.52725 5.36748 11 7.18421 11Z" fill="#A9D7F7"/>
</svg>
