<svg width="18" height="18" viewBox="0 0 18 18" fill="none" xmlns="http://www.w3.org/2000/svg">
<path fill-rule="evenodd" clip-rule="evenodd" d="M16.2585 1.2937C15.8419 1.02677 15.3119 1.01245 14.8816 1.25659L1.80475 8.63026C1.3002 8.90761 1.03132 9.47856 1.13743 10.0443C1.2442 10.6107 1.70188 11.0443 2.2735 11.1198L3.48508 11.2865C3.62831 11.3139 3.77675 11.2806 3.89588 11.196C4.01437 11.1107 4.09315 10.9805 4.11333 10.836C4.13417 10.6914 4.09445 10.545 4.00396 10.4297C3.91412 10.3151 3.78066 10.2422 3.63483 10.2286L2.42454 10.0619H2.42519C2.30931 10.0482 2.21556 9.96098 2.19408 9.8464C2.17194 9.73181 2.22728 9.61658 2.33015 9.5619L13.8685 3.0619L6.25981 10.4116C5.90305 10.7573 5.73508 11.254 5.80865 11.7449L6.42713 15.7749H6.42648C6.50851 16.3459 6.95121 16.7983 7.52023 16.8921C7.599 16.9051 7.67843 16.9116 7.75851 16.9116C8.24809 16.9123 8.69731 16.6408 8.92518 16.2065L9.96684 14.2717L13.8333 16.5535C14.2311 16.7892 14.7227 16.8022 15.1322 16.5874C15.5417 16.3732 15.8112 15.9611 15.8431 15.5001L16.8718 2.52032C16.9095 2.02943 16.6738 1.55808 16.2585 1.29375L16.2585 1.2937ZM7.9832 15.7052C7.93242 15.8094 7.81719 15.866 7.70325 15.8419C7.58802 15.8263 7.49752 15.7345 7.4832 15.6186L7.01185 12.5333L9.04502 13.7319L7.9832 15.7052ZM14.6343 15.6388C14.7163 15.5958 14.7704 15.5138 14.7769 15.422L15.7866 2.68971L7.0034 11.1799C6.98192 11.2027 6.96174 11.2267 6.94351 11.2521L14.3752 15.6316C14.4546 15.6785 14.5529 15.6811 14.6343 15.6388Z" fill="#ACAEB0"/>
<path d="M14.8816 1.25659L15.1272 1.69212L15.1283 1.69148L14.8816 1.25659ZM16.2585 1.2937L16.5844 1.67296C16.7042 1.56998 16.7684 1.41638 16.7573 1.25873C16.7463 1.10108 16.6613 0.957937 16.5283 0.872687L16.2585 1.2937ZM1.80475 8.63026L2.04562 9.06845L2.05034 9.06579L1.80475 8.63026ZM1.13743 10.0443L0.646004 10.1365L0.646088 10.1369L1.13743 10.0443ZM2.2735 11.1198L2.34164 10.6245L2.33899 10.6241L2.2735 11.1198ZM3.48508 11.2865L3.57885 10.7954C3.57034 10.7938 3.5618 10.7924 3.55322 10.7912L3.48508 11.2865ZM3.89588 11.196L4.18547 11.6036L4.18798 11.6018L3.89588 11.196ZM4.11333 10.836L3.61844 10.7646L3.61814 10.7668L4.11333 10.836ZM4.00396 10.4297L3.61049 10.7382L3.61073 10.7385L4.00396 10.4297ZM3.63483 10.2286L3.56662 10.7239C3.57378 10.7249 3.58097 10.7257 3.58817 10.7264L3.63483 10.2286ZM2.42454 10.0619V9.5619C2.16167 9.5619 1.94369 9.76545 1.92571 10.0277C1.90774 10.29 2.09592 10.5214 2.35633 10.5572L2.42454 10.0619ZM2.42519 10.0619V10.5619C2.68994 10.5619 2.9088 10.3555 2.92433 10.0912C2.93987 9.82695 2.7467 9.59636 2.48378 9.56534L2.42519 10.0619ZM2.19408 9.8464L2.68552 9.75426L2.685 9.75156L2.19408 9.8464ZM2.33015 9.5619L2.56492 10.0035L2.57555 9.99753L2.33015 9.5619ZM13.8685 3.0619L14.2159 3.42152C14.3968 3.24674 14.4197 2.96476 14.2694 2.76307C14.119 2.56139 13.8422 2.5028 13.6231 2.62626L13.8685 3.0619ZM6.25981 10.4116L5.91243 10.0519L5.91187 10.0525L6.25981 10.4116ZM5.80865 11.7449L5.31416 11.819L5.31443 11.8207L5.80865 11.7449ZM6.42713 15.7749V16.2749C6.57298 16.2749 6.71156 16.2112 6.80655 16.1005C6.90154 15.9899 6.94347 15.8432 6.92134 15.699L6.42713 15.7749ZM6.42648 15.7749V15.2749C6.28146 15.2749 6.14359 15.3379 6.04862 15.4474C5.95365 15.557 5.91094 15.7025 5.93156 15.846L6.42648 15.7749ZM7.52023 16.8921L7.60177 16.3988L7.60151 16.3987L7.52023 16.8921ZM7.75851 16.9116L7.75918 16.4116H7.75851V16.9116ZM8.92518 16.2065L8.4849 15.9695L8.48243 15.9742L8.92518 16.2065ZM9.96684 14.2717L10.221 13.8411C10.1038 13.772 9.96359 13.7535 9.83257 13.7901C9.70155 13.8266 9.59107 13.9149 9.52659 14.0347L9.96684 14.2717ZM13.8333 16.5535L14.0882 16.1234L14.0875 16.1229L13.8333 16.5535ZM15.1322 16.5874L14.9004 16.1443L14.8999 16.1446L15.1322 16.5874ZM15.8431 15.5001L15.3446 15.4606L15.3443 15.4656L15.8431 15.5001ZM16.8718 2.52032L17.3702 2.55982L17.3703 2.55866L16.8718 2.52032ZM16.2585 1.29375L15.9327 0.914489C15.8126 1.01765 15.7484 1.17157 15.7598 1.32947C15.7711 1.48737 15.8565 1.63058 15.99 1.71558L16.2585 1.29375ZM7.70325 15.8419L7.80667 15.3527C7.79467 15.3502 7.78259 15.3481 7.77043 15.3465L7.70325 15.8419ZM7.9832 15.7052L7.5429 15.4683C7.53973 15.4742 7.53669 15.4801 7.53376 15.4861L7.9832 15.7052ZM7.4832 15.6186L7.97943 15.5573C7.97884 15.5526 7.97819 15.5478 7.97747 15.5431L7.4832 15.6186ZM7.01185 12.5333L7.26577 12.1026C7.09945 12.0045 6.89155 12.011 6.73165 12.1192C6.57175 12.2274 6.48843 12.4179 6.51759 12.6088L7.01185 12.5333ZM9.04502 13.7319L9.48532 13.9688C9.61257 13.7323 9.53028 13.4375 9.29893 13.3011L9.04502 13.7319ZM14.7769 15.422L14.2784 15.3825L14.2781 15.3866L14.7769 15.422ZM14.6343 15.6388L14.865 16.0824L14.8663 16.0817L14.6343 15.6388ZM15.7866 2.68971L16.285 2.72923C16.3014 2.52198 16.1879 2.32619 15.9999 2.23749C15.8118 2.1488 15.5885 2.18571 15.4391 2.33021L15.7866 2.68971ZM7.0034 11.1799L6.6559 10.8204C6.65034 10.8257 6.64492 10.8312 6.63962 10.8369L7.0034 11.1799ZM6.94351 11.2521L6.53736 10.9605C6.45545 11.0746 6.42529 11.2179 6.45426 11.3553C6.48323 11.4927 6.56866 11.6116 6.68965 11.6829L6.94351 11.2521ZM14.3752 15.6316L14.6293 15.201L14.629 15.2009L14.3752 15.6316ZM15.1283 1.69148C15.3972 1.53894 15.7283 1.54783 15.9888 1.71471L16.5283 0.872687C15.9554 0.505705 15.2267 0.485964 14.6349 0.821703L15.1283 1.69148ZM2.05034 9.06579L15.1272 1.69212L14.636 0.821058L1.55917 8.19473L2.05034 9.06579ZM1.62887 9.95215C1.56247 9.59817 1.73089 9.24142 2.04561 9.06842L1.56389 8.19209C0.869513 8.57379 0.500163 9.35894 0.646004 10.1365L1.62887 9.95215ZM2.33899 10.6241C1.98165 10.5769 1.69558 10.306 1.62878 9.9517L0.646088 10.1369C0.792832 10.9154 1.42211 11.5117 2.20801 11.6155L2.33899 10.6241ZM3.55322 10.7912L2.34164 10.6245L2.20536 11.6152L3.41695 11.7818L3.55322 10.7912ZM3.60631 10.7884C3.59637 10.7955 3.58601 10.7967 3.57885 10.7954L3.39132 11.7776C3.67061 11.831 3.95714 11.7658 4.18546 11.6036L3.60631 10.7884ZM3.61814 10.7668C3.61691 10.7756 3.61186 10.7844 3.60379 10.7902L4.18798 11.6018C4.41689 11.4371 4.56939 11.1854 4.60853 10.9051L3.61814 10.7668ZM3.61073 10.7385C3.61778 10.7475 3.61956 10.757 3.61845 10.7646L4.60822 10.9073C4.64878 10.6259 4.57113 10.3424 4.39719 10.1209L3.61073 10.7385ZM3.58817 10.7264C3.59759 10.7273 3.60553 10.7319 3.61049 10.7382L4.39743 10.1212C4.2227 9.89837 3.96373 9.7572 3.68148 9.73074L3.58817 10.7264ZM2.35633 10.5572L3.56662 10.7239L3.70304 9.73324L2.49275 9.56657L2.35633 10.5572ZM2.42519 9.5619H2.42454V10.5619H2.42519V9.5619ZM1.70264 9.93853C1.76462 10.2691 2.03458 10.5193 2.36661 10.5585L2.48378 9.56534C2.58404 9.57717 2.6665 9.65283 2.68551 9.75426L1.70264 9.93853ZM2.09545 9.1204C1.7993 9.27783 1.63922 9.61027 1.70315 9.94123L2.685 9.75156C2.70467 9.85335 2.65526 9.95532 2.56485 10.0034L2.09545 9.1204ZM13.6231 2.62626L2.08474 9.12626L2.57555 9.99753L14.1139 3.49753L13.6231 2.62626ZM6.60719 10.7712L14.2159 3.42152L13.5211 2.70227L5.91243 10.0519L6.60719 10.7712ZM6.30312 11.6708C6.25348 11.3395 6.36686 11.0041 6.60775 10.7706L5.91187 10.0525C5.43924 10.5105 5.21668 11.1685 5.31417 11.819L6.30312 11.6708ZM6.92134 15.699L6.30286 11.669L5.31443 11.8207L5.93292 15.8507L6.92134 15.699ZM6.42648 16.2749H6.42713V15.2749H6.42648V16.2749ZM7.60151 16.3987C7.24803 16.3405 6.97245 16.0592 6.9214 15.7038L5.93156 15.846C6.04456 16.6326 6.65439 17.2562 7.43894 17.3854L7.60151 16.3987ZM7.75851 16.4116C7.70567 16.4116 7.65352 16.4073 7.60177 16.3988L7.43869 17.3854C7.54449 17.4029 7.65119 17.4116 7.75851 17.4116V16.4116ZM8.48243 15.9742C8.34085 16.244 8.06227 16.412 7.75918 16.4116L7.75785 17.4116C8.43392 17.4125 9.05377 17.0375 9.36792 16.4389L8.48243 15.9742ZM9.52659 14.0347L8.48493 15.9695L9.36543 16.4435L10.4071 14.5087L9.52659 14.0347ZM14.0875 16.1229L10.221 13.8411L9.71272 14.7023L13.5792 16.9841L14.0875 16.1229ZM14.8999 16.1446C14.6442 16.2788 14.337 16.2708 14.0882 16.1234L13.5785 16.9837C14.1253 17.3077 14.8012 17.3257 15.3645 17.0301L14.8999 16.1446ZM15.3443 15.4656C15.3244 15.7531 15.1561 16.0106 14.9004 16.1443L15.3639 17.0304C15.9273 16.7358 16.298 16.1691 16.3419 15.5347L15.3443 15.4656ZM16.3733 2.48081L15.3447 15.4606L16.3415 15.5396L17.3702 2.55982L16.3733 2.48081ZM15.99 1.71558C16.2496 1.88077 16.3968 2.1752 16.3732 2.48197L17.3703 2.55866C17.4222 1.88366 17.0981 1.23539 16.5269 0.871922L15.99 1.71558ZM15.9327 0.914441L15.9327 0.914489L16.5843 1.67301L16.5844 1.67296L15.9327 0.914441ZM7.59983 16.3311C7.9387 16.4027 8.28157 16.2342 8.43264 15.9243L7.53376 15.4861C7.58327 15.3845 7.69568 15.3293 7.80667 15.3527L7.59983 16.3311ZM6.98697 15.6799C7.02899 16.02 7.2947 16.2911 7.63607 16.3374L7.77043 15.3465C7.88133 15.3615 7.96604 15.449 7.97943 15.5573L6.98697 15.6799ZM6.51759 12.6088L6.98894 15.6941L7.97747 15.5431L7.50612 12.4578L6.51759 12.6088ZM9.29893 13.3011L7.26577 12.1026L6.75793 12.964L8.7911 14.1626L9.29893 13.3011ZM8.42351 15.9421L9.48532 13.9688L8.60471 13.4949L7.5429 15.4683L8.42351 15.9421ZM14.2781 15.3866C14.284 15.3037 14.3324 15.2325 14.4023 15.1959L14.8663 16.0817C15.1003 15.9592 15.2567 15.7239 15.2756 15.4574L14.2781 15.3866ZM15.2881 2.65018L14.2784 15.3825L15.2753 15.4615L16.285 2.72923L15.2881 2.65018ZM7.35091 11.5394L16.1341 3.04921L15.4391 2.33021L6.6559 10.8204L7.35091 11.5394ZM7.34966 11.5438C7.3534 11.5385 7.35904 11.5315 7.36718 11.5229L6.63962 10.8369C6.60479 10.8738 6.57008 10.9149 6.53736 10.9605L7.34966 11.5438ZM14.629 15.2009L7.19736 10.8214L6.68965 11.6829L14.1213 16.0624L14.629 15.2009ZM14.4036 15.1952C14.4756 15.1578 14.5605 15.1604 14.6293 15.201L14.1211 16.0623C14.3487 16.1966 14.6302 16.2045 14.865 16.0824L14.4036 15.1952Z" fill="#ACAEB0"/>
</svg>
