<svg width="17" height="17" viewBox="0 0 17 17" fill="none" xmlns="http://www.w3.org/2000/svg">
<g opacity="0.6">
<path fill-rule="evenodd" clip-rule="evenodd" d="M12.037 1.79715C10.235 1.79715 8.77536 3.23476 8.77536 5.00937C8.77536 6.78399 10.2351 8.22159 12.037 8.22159C13.8389 8.22159 15.2986 6.78399 15.2986 5.00937C15.2986 3.23476 13.8389 1.79715 12.037 1.79715Z" />
<path d="M4.62846 15.8238C2.65743 15.8238 1.05603 14.2467 1.05603 12.3055V4.90242C1.05603 2.96125 2.65745 1.38412 4.62846 1.38412L6.77597 1.38412C7.34896 1.38412 7.8008 1.8136 7.8008 2.3785C7.8008 2.9395 7.33765 3.38781 6.77597 3.38781H4.62846C3.77877 3.38781 3.09052 4.06943 3.09052 4.90245V12.3056C3.09052 13.1424 3.78262 13.8202 4.62846 13.8202H12.1304C12.9801 13.8202 13.6683 13.1386 13.6683 12.3056V10.2025C13.6683 9.64155 14.1315 9.19323 14.6932 9.19323C15.2628 9.19323 15.718 9.64936 15.718 10.2025V12.3056C15.718 14.2467 14.1166 15.8239 12.1456 15.8239L4.62846 15.8238Z" />
</g>
</svg>
