<svg width="18" height="19" viewBox="0 0 18 19" fill="none" xmlns="http://www.w3.org/2000/svg">
<path fill-rule="evenodd" clip-rule="evenodd" d="M16.875 5H11.2907V6.26635C11.2907 7.17708 10.534 7.92853 9.57285 7.92853H8.0795C7.13827 7.92853 6.36165 7.1964 6.36165 6.26635V5H0.7974C0.347564 5 0 5.35641 0 5.77156V18.0626C0 18.4978 0.368345 18.8341 0.7974 18.8341H16.8751C17.3249 18.8341 17.6725 18.4777 17.6725 18.0626V5.77156C17.6725 5.35562 17.3249 5 16.8751 5H16.875ZM13.6837 8.06771C14.3996 8.06771 14.9517 8.62203 14.9517 9.29463C14.9517 9.96723 14.3788 10.5216 13.6837 10.5216C12.9886 10.5216 12.4157 9.96723 12.4157 9.29463C12.4157 8.62126 12.9678 8.06771 13.6837 8.06771ZM15.7698 17.2902C15.9336 17.2902 16.0767 17.1518 16.0767 16.9934L16.0767 16.1624C16.0767 16.0835 16.0359 16.024 15.9952 15.9645L13.2129 12.9755C12.8654 12.6191 12.2925 12.6191 11.9449 12.9755L10.7584 14.2226C10.6362 14.3609 10.4316 14.3609 10.3086 14.2226L7.44493 11.0357C7.05662 10.6198 6.38146 10.6198 6.01311 11.0357L1.67695 15.8453C1.61623 15.9048 1.59545 15.9643 1.59545 16.0432V16.9934C1.59545 17.1518 1.73848 17.2902 1.90227 17.2902H15.7698Z" fill="#50AFF0"/>
<path fill-rule="evenodd" clip-rule="evenodd" d="M6.57612 3.88914H7.47579V6.24395C7.47579 6.58025 7.76182 6.85781 8.11021 6.85781H9.60355C9.95112 6.85781 10.238 6.58105 10.238 6.24395L10.2372 3.88914H11.1368C11.6274 3.88914 11.8935 3.35492 11.5867 2.97841L9.29598 0.207575C9.07065 -0.0691917 8.62081 -0.0691917 8.3963 0.207575L6.1056 2.97841C5.83953 3.35413 6.1056 3.88914 6.57622 3.88914H6.57612Z" fill="#50AFF0"/>
</svg>
